<?xml version="1.0" encoding="utf-8"?>
<!-- Generated by IcoMoon.io -->
<!DOCTYPE svg PUBLIC "-//W3C//DTD SVG 1.1//EN" "http://www.w3.org/Graphics/SVG/1.1/DTD/svg11.dtd">

<!-- Generated by IcoMoon.io -->
<svg version="1.1" xmlns="http://www.w3.org/2000/svg" xmlns:xlink="http://www.w3.org/1999/xlink" width="24" height="72" viewBox="0 0 24 72">
    <defs>
        <g id="icon-eye">
            <path class="path1" d="M12 4.5c-5.234 0-9.771 3.048-12 7.5 2.229 4.452 6.766 7.5 12 7.5s9.771-3.048 12-7.5c-2.229-4.452-6.766-7.5-12-7.5zM17.917 8.477c1.41 0.899 2.605 2.104 3.502 3.523-0.897 1.418-2.092 2.623-3.502 3.523-1.772 1.13-3.818 1.727-5.917 1.727s-4.145-0.597-5.917-1.727c-1.41-0.899-2.605-2.104-3.502-3.523 0.897-1.419 2.092-2.623 3.502-3.523 0.092-0.059 0.185-0.115 0.278-0.171-0.233 0.64-0.361 1.332-0.361 2.053 0 3.314 2.686 6 6 6s6-2.686 6-6c0-0.721-0.128-1.413-0.361-2.053 0.093 0.056 0.186 0.113 0.278 0.171zM12 9.609c0 1.243-1.007 2.25-2.25 2.25s-2.25-1.007-2.25-2.25 1.007-2.25 2.25-2.25 2.25 1.007 2.25 2.25z"></path>
        </g>
        <g id="icon-eye-alt">
            <path class="path1" d="M12 4.5c-5.234 0-9.771 3.048-12 7.5 2.229 4.452 6.766 7.5 12 7.5s9.771-3.048 12-7.5c-2.229-4.452-6.766-7.5-12-7.5zM17.917 8.477c1.41 0.899 2.605 2.104 3.502 3.523-0.897 1.418-2.092 2.623-3.502 3.523-1.772 1.13-3.818 1.727-5.917 1.727s-4.145-0.597-5.917-1.727c-1.41-0.899-2.605-2.104-3.502-3.523 0.897-1.419 2.092-2.623 3.502-3.523 0.092-0.059 0.185-0.115 0.278-0.171-0.233 0.64-0.361 1.332-0.361 2.053 0 3.314 2.686 6 6 6s6-2.686 6-6c0-0.721-0.128-1.413-0.361-2.053 0.093 0.056 0.186 0.113 0.278 0.171zM12 9.609c0 1.243-1.007 2.25-2.25 2.25s-2.25-1.007-2.25-2.25 1.007-2.25 2.25-2.25 2.25 1.007 2.25 2.25z"></path>
        </g>
        <g id="icon-eye-blocked">
            <path class="path1" d="M19.672 6.947c1.82 1.29 3.313 3.026 4.328 5.053-2.229 4.452-6.766 7.5-12 7.5-1.466 0-2.878-0.239-4.199-0.682l1.827-1.827c0.775 0.171 1.57 0.259 2.372 0.259 2.099 0 4.145-0.597 5.917-1.727 1.41-0.899 2.605-2.104 3.502-3.523-0.868-1.373-2.016-2.544-3.367-3.433l1.619-1.619zM12 16.359c-0.533 0-1.049-0.070-1.54-0.2l7.34-7.34c0.13 0.492 0.2 1.008 0.2 1.54 0 3.314-2.686 6-6 6zM22.5 0h-1.259l-5.147 5.147c-1.291-0.42-2.666-0.647-4.093-0.647-5.234 0-9.771 3.048-12 7.5 1 1.997 2.464 3.71 4.247 4.994l-4.247 4.247v1.259h1.259l21.241-21.241v-1.259zM9.75 7.359c1.126 0 2.059 0.827 2.224 1.907l-2.567 2.567c-1.080-0.165-1.907-1.098-1.907-2.224 0-1.243 1.007-2.25 2.25-2.25zM2.581 12c0.897-1.419 2.092-2.623 3.502-3.523 0.092-0.059 0.185-0.115 0.278-0.171-0.233 0.64-0.361 1.332-0.361 2.053 0 1.372 0.461 2.636 1.235 3.646l-1.372 1.372c-1.314-0.882-2.432-2.034-3.282-3.378z"></path>
        </g>
    </defs>
    <g fill="#bbbbbb">
        <use xlink:href="#icon-eye" transform="translate(0 0)"></use>
        <use xlink:href="#icon-eye-blocked" transform="translate(0 48)"></use>
    </g>
    <g fill="#ffbf5d">
        <use xlink:href="#icon-eye-alt" transform="translate(0 24)"></use>
    </g>
</svg>
